<svg width="30" height="30" viewBox="0 0 30 30" fill="none" xmlns="http://www.w3.org/2000/svg">
<g clip-path="url(#clip0_30_5815)">
<path d="M28.3553 26.7672C29.0364 27.4017 29.5472 28.1913 29.7689 29.25H0.855568C1.07736 28.1921 1.58964 27.4028 2.27348 26.7682C3.1442 25.9601 4.31252 25.3856 5.59816 24.8792C6.06066 24.697 6.55636 24.518 7.05419 24.3382C7.86874 24.044 8.68898 23.7477 9.37873 23.4323C10.5055 22.9171 11.6061 22.2233 12.0756 21.0688L11.7033 20.9174L12.1216 20.9485C12.2112 19.8518 12.2383 18.7514 12.2028 17.6521L12.1927 17.3392L11.9632 17.1264C11.0362 16.2665 10.4644 15.1552 10.3243 13.9776L10.2514 13.365L9.63617 13.3184C9.60476 13.316 9.49314 13.2978 9.35654 13.1376C9.21248 12.9685 9.01649 12.61 8.91948 11.8925L8.9195 11.8925L8.91839 11.8844L8.91813 11.8825L8.28891 11.9674L8.90662 11.8228C8.87575 11.6909 8.88595 11.5536 8.93836 11.4238C8.99112 11.2932 9.08741 11.1692 9.22578 11.0727L9.66378 10.7673L9.51854 10.2535C8.75259 7.54382 8.63951 5.18406 9.43079 3.52748C10.1782 1.9628 11.8485 0.808428 15.2394 0.750002C16.0737 0.750517 16.7728 0.85391 17.3033 1.03596C17.8404 1.22025 18.1424 1.46225 18.2875 1.69582L18.4759 1.99896L18.8299 2.044C19.9626 2.1881 20.6534 2.62921 21.0906 3.18317C21.5427 3.75614 21.7829 4.52609 21.8586 5.41284C22.0113 7.20226 21.4729 9.2063 21.1118 10.2017L20.9028 10.7779L21.4078 11.0865C21.5363 11.1801 21.6265 11.298 21.677 11.422C21.7292 11.55 21.7398 11.6855 21.7101 11.8158L21.7022 11.8505L21.6976 11.8857C21.6036 12.6087 21.4068 12.9678 21.2627 13.1362C21.1265 13.2955 21.0137 13.3146 20.9802 13.3171L20.3555 13.3644L20.2908 13.9875L20.2888 14.0074C20.2887 14.0084 20.2886 14.0094 20.2885 14.0104C20.1569 15.1734 19.6032 16.274 18.6997 17.1326L19.1689 17.6263L18.4682 17.6036C18.4644 17.7112 18.4612 17.8188 18.4587 17.9264L18.413 19.4742L18.463 19.4267C18.4691 19.63 18.4773 19.8331 18.4877 20.0362H18.1734L18.5924 21.0684C19.0607 22.2222 20.1571 22.9163 21.2801 23.4319C21.8573 23.6969 22.4888 23.9348 23.1226 24.1659C23.2645 24.2176 23.4064 24.269 23.5483 24.3203C24.0485 24.5014 24.5479 24.6822 25.0452 24.8788C26.3252 25.3851 27.4882 25.9594 28.3553 26.7672Z" stroke="#FF0000" stroke-width="1.5"/>
</g>
<defs>
<clipPath id="clip0_30_5815">
<rect width="30" height="30" fill="white"/>
</clipPath>
</defs>
</svg>
