<svg width="213" height="200" viewBox="0 0 213 200" fill="none" xmlns="http://www.w3.org/2000/svg">
<path d="M212.328 196.835C212.328 198.579 164.79 200 106.167 200C47.5439 200 0 198.579 0 196.835C0 195.09 47.5383 193.669 106.167 193.669C164.796 193.669 212.328 195.09 212.328 196.835Z" fill="#FF0000"/>
<path opacity="0.3" d="M212.328 196.835C212.328 198.579 164.79 200 106.167 200C47.5439 200 0 198.579 0 196.835C0 195.09 47.5383 193.669 106.167 193.669C164.796 193.669 212.328 195.09 212.328 196.835Z" fill="white"/>
<path d="M192.005 135.89C192.005 135.918 193.442 134.408 193.52 134.302C194.432 133.083 195.478 130.186 194.488 128.793C194.317 128.567 194.101 128.379 193.853 128.242C193.605 128.105 193.331 128.022 193.049 127.998C192.767 127.973 192.483 128.009 192.215 128.101C191.947 128.194 191.702 128.342 191.496 128.536C190.59 129.33 190.377 130.801 190.455 131.936C190.55 133.267 192.005 135.885 192.005 135.89Z" fill="#FF0000"/>
<path d="M205.069 130.689C203.671 129.71 200.785 130.779 199.571 131.696C199.465 131.78 197.966 133.211 197.994 133.223H198.028C197.569 133.39 197.083 133.569 196.551 133.782C195.578 134.173 194.482 134.632 193.319 135.202C192.063 135.813 190.842 136.493 189.661 137.238C188.338 138.069 187.091 139.016 185.936 140.068C185.922 140.08 185.909 140.093 185.897 140.107C186.143 139.677 186.798 138.429 186.837 138.34C187.396 136.919 187.637 133.866 186.317 132.775C186.091 132.603 185.831 132.48 185.555 132.415C185.279 132.349 184.992 132.343 184.713 132.396C184.434 132.448 184.169 132.559 183.936 132.721C183.702 132.883 183.505 133.092 183.358 133.334C182.698 134.341 182.877 135.812 183.257 136.886C183.682 138.099 185.612 140.102 185.769 140.242C184.617 141.34 183.541 142.516 182.547 143.759C181.988 144.481 181.401 145.225 180.869 145.996C181.071 145.616 181.25 145.269 181.266 145.219C181.826 143.804 182.066 140.745 180.746 139.654C180.521 139.482 180.262 139.359 179.986 139.294C179.71 139.229 179.424 139.222 179.145 139.275C178.866 139.328 178.602 139.439 178.369 139.6C178.136 139.762 177.94 139.971 177.793 140.214C177.128 141.215 177.312 142.691 177.687 143.759C178.062 144.828 179.684 146.595 180.114 147.048L179.46 147.909C178.453 149.313 177.458 150.706 176.434 152.059C176.076 152.534 175.707 152.993 175.316 153.446C175.495 153.105 175.646 152.82 175.662 152.775C176.222 151.354 176.462 148.301 175.142 147.182C174.917 147.009 174.657 146.885 174.381 146.82C174.104 146.754 173.817 146.747 173.538 146.8C173.259 146.853 172.994 146.964 172.76 147.126C172.527 147.288 172.331 147.498 172.184 147.741C171.518 148.748 171.703 150.219 172.083 151.293C172.463 152.367 173.918 153.955 174.427 154.497C174.035 154.956 173.644 155.409 173.241 155.834C172.961 156.119 172.715 156.393 172.413 156.679L171.557 157.484C170.998 157.976 170.439 158.491 169.852 158.96C169.46 159.29 169.085 159.592 168.733 159.9C169.091 159.436 169.785 158.502 169.852 158.418C170.482 157.235 170.797 155.91 170.769 154.57C170.843 154.441 170.907 154.307 170.959 154.167C171.064 153.904 171.111 153.621 171.1 153.337C171.088 153.054 171.017 152.776 170.891 152.522C170.765 152.268 170.587 152.043 170.368 151.862C170.15 151.681 169.896 151.548 169.622 151.472C167.944 151.063 165.651 153.094 164.852 154.391C164.807 154.469 164.382 155.353 164.13 155.918C164.225 155.566 164.332 155.219 164.427 154.855C164.628 154.134 164.807 153.407 164.986 152.618C165.064 152.238 165.148 151.852 165.232 151.466C165.316 151.08 165.366 150.666 165.439 150.264C165.579 149.324 165.679 148.368 165.763 147.4C166.395 147.574 168.649 148.161 169.779 147.959C170.909 147.758 172.29 147.255 172.861 146.198C173.005 145.954 173.096 145.682 173.128 145.4C173.16 145.118 173.132 144.832 173.046 144.562C172.96 144.291 172.818 144.042 172.629 143.831C172.44 143.619 172.208 143.45 171.949 143.334C170.372 142.674 167.782 144.335 166.792 145.493C166.731 145.566 166.116 146.477 165.786 146.986C165.83 146.427 165.875 145.823 165.903 145.23C165.97 143.552 165.993 141.802 166.021 140.079C166.021 139.554 166.021 139.028 166.054 138.502C166.278 138.564 168.946 139.319 170.21 139.123C171.328 138.955 172.721 138.424 173.297 137.361C173.439 137.116 173.529 136.844 173.559 136.562C173.59 136.281 173.561 135.995 173.475 135.726C173.388 135.456 173.246 135.207 173.058 134.995C172.869 134.784 172.638 134.614 172.38 134.498C170.808 133.843 168.213 135.504 167.223 136.662C167.15 136.746 166.267 138.06 166.054 138.407C166.082 137.249 166.121 136.092 166.205 134.956C166.313 133.422 166.519 131.896 166.82 130.387C166.927 130.387 169.706 131.215 171.004 131.013C172.122 130.846 173.509 130.314 174.085 129.252C174.228 129.007 174.318 128.735 174.349 128.454C174.38 128.172 174.352 127.887 174.266 127.617C174.18 127.348 174.038 127.099 173.85 126.887C173.662 126.675 173.432 126.505 173.174 126.388C171.597 125.734 169.002 127.389 168.017 128.553C167.95 128.625 167.273 129.626 166.966 130.107L166.876 130.074C167.222 128.563 167.703 127.086 168.314 125.661C168.638 124.873 168.99 124.14 169.354 123.424C169.857 123.625 172.15 124.543 173.347 124.476C174.544 124.408 175.92 124.051 176.608 123.061C176.777 122.833 176.896 122.573 176.958 122.296C177.019 122.019 177.022 121.733 176.966 121.455C176.911 121.177 176.797 120.914 176.633 120.683C176.469 120.452 176.259 120.258 176.015 120.113C174.522 119.291 171.759 120.672 170.651 121.696C170.59 121.752 170.042 122.395 169.645 122.87C169.812 122.557 169.98 122.227 170.148 121.925C170.774 120.807 171.412 119.8 171.988 118.922C172.318 118.43 172.626 117.988 172.922 117.574C173.515 117.518 175.92 117.244 176.932 116.668C177.944 116.092 179.018 115.108 179.169 113.911C179.215 113.631 179.202 113.345 179.129 113.071C179.057 112.797 178.928 112.541 178.75 112.32C178.572 112.1 178.349 111.919 178.097 111.79C177.844 111.661 177.567 111.587 177.284 111.573C175.579 111.528 173.761 114.006 173.258 115.443C173.213 115.572 172.754 117.591 172.782 117.585H172.821C172.531 117.958 172.223 118.383 171.899 118.86C171.3 119.727 170.635 120.712 169.986 121.83C169.272 123.03 168.628 124.27 168.056 125.544C167.412 126.969 166.894 128.447 166.507 129.962C166.51 129.981 166.51 129.999 166.507 130.018C166.507 129.52 166.339 128.128 166.317 128.021C166.004 126.534 164.511 123.838 162.816 123.67C162.533 123.649 162.249 123.687 161.982 123.783C161.715 123.879 161.471 124.03 161.267 124.226C161.062 124.422 160.901 124.66 160.794 124.922C160.687 125.185 160.637 125.467 160.646 125.751C160.646 126.953 161.614 128.083 162.52 128.765C163.543 129.543 166.256 130.152 166.474 130.197C166.123 131.75 165.874 133.325 165.73 134.912C165.646 135.834 165.584 136.763 165.534 137.708C165.495 137.277 165.456 136.891 165.445 136.841C165.126 135.348 163.632 132.658 161.938 132.484C161.655 132.463 161.371 132.501 161.104 132.597C160.837 132.693 160.593 132.844 160.389 133.04C160.184 133.237 160.023 133.474 159.916 133.736C159.809 133.999 159.758 134.281 159.768 134.565C159.768 135.767 160.735 136.897 161.641 137.585C162.548 138.273 164.869 138.843 165.478 138.989C165.478 139.347 165.445 139.705 165.433 140.063C165.366 141.785 165.31 143.508 165.204 145.191C165.165 145.784 165.103 146.371 165.047 146.953C165.014 146.572 164.975 146.248 164.969 146.203C164.65 144.71 163.157 142.02 161.463 141.847C161.18 141.825 160.896 141.864 160.629 141.959C160.362 142.055 160.118 142.206 159.913 142.402C159.708 142.599 159.547 142.836 159.44 143.099C159.333 143.361 159.283 143.644 159.293 143.927C159.293 145.135 160.26 146.259 161.166 146.947C162.072 147.635 164.169 148.155 164.891 148.323C164.818 148.921 164.74 149.52 164.639 150.09C164.561 150.482 164.516 150.868 164.415 151.254L164.147 152.372C163.946 153.094 163.75 153.843 163.537 154.542C163.392 155.029 163.247 155.493 163.101 155.963C163.146 155.37 163.207 154.212 163.202 154.111C163.118 152.596 162.05 149.704 160.405 149.279C160.129 149.216 159.843 149.212 159.565 149.266C159.288 149.321 159.024 149.433 158.793 149.596C158.561 149.759 158.367 149.969 158.221 150.212C158.076 150.455 157.984 150.726 157.95 151.008C157.766 152.199 158.549 153.457 159.343 154.274C160.137 155.09 162.699 156.158 163.012 156.281C162.766 157.053 162.525 157.797 162.285 158.519C161.451 160.951 160.668 162.948 160.103 164.335C160.103 164.385 160.064 164.43 160.042 164.475L161.06 165.034C161.093 164.945 161.133 164.855 161.166 164.76C161.725 163.345 162.458 161.309 163.241 158.832C163.493 158.049 163.744 157.21 163.996 156.343C164.849 156.45 165.709 156.506 166.569 156.511C166.876 157.758 168.302 159.805 168.487 160.068C167.861 160.577 167.245 161.069 166.658 161.522C164.622 163.093 162.866 164.318 161.625 165.168L161.479 165.269L162.598 165.884C163.806 165.017 165.394 163.815 167.279 162.316C167.917 161.802 168.593 161.237 169.276 160.638C169.527 160.851 171.569 162.584 172.777 162.931C173.867 163.244 175.349 163.345 176.311 162.624C176.544 162.462 176.739 162.253 176.886 162.01C177.032 161.767 177.126 161.497 177.16 161.215C177.195 160.934 177.17 160.649 177.088 160.378C177.005 160.107 176.866 159.857 176.68 159.643C175.528 158.384 172.48 158.804 171.088 159.441C171.009 159.481 170.17 160.001 169.645 160.314C169.924 160.073 170.204 159.844 170.478 159.592C171.037 159.106 171.597 158.597 172.189 158.049L173.028 157.227C173.314 156.953 173.588 156.634 173.867 156.337C174.505 155.633 175.114 154.889 175.713 154.128C176.149 154.62 177.709 156.365 178.744 156.835C179.779 157.305 181.227 157.629 182.29 157.064C182.544 156.939 182.768 156.761 182.949 156.544C183.13 156.326 183.263 156.073 183.34 155.8C183.417 155.528 183.436 155.242 183.396 154.962C183.356 154.681 183.257 154.413 183.106 154.173C182.156 152.758 179.08 152.708 177.614 153.127C177.519 153.155 176.496 153.575 175.937 153.815C176.289 153.356 176.652 152.898 176.994 152.417C177.995 151.035 178.962 149.621 179.935 148.189L180.836 146.891C180.987 147.065 182.799 149.168 183.962 149.688C184.991 150.163 186.44 150.487 187.502 149.917C187.757 149.793 187.983 149.616 188.165 149.398C188.347 149.181 188.481 148.927 188.558 148.654C188.635 148.381 188.654 148.095 188.613 147.814C188.571 147.534 188.471 147.265 188.319 147.025C187.368 145.611 184.292 145.56 182.827 145.985C182.721 146.013 181.255 146.623 180.892 146.796C181.552 145.845 182.223 144.9 182.922 144C183.854 142.776 184.867 141.616 185.953 140.527C186.026 140.611 187.905 142.809 189.091 143.357C190.125 143.838 191.574 144.156 192.636 143.592C192.891 143.467 193.116 143.29 193.298 143.072C193.479 142.854 193.613 142.601 193.69 142.328C193.767 142.055 193.785 141.769 193.745 141.489C193.704 141.208 193.604 140.94 193.453 140.7C192.502 139.28 189.426 139.235 187.961 139.654C187.866 139.682 186.753 140.146 186.227 140.376L186.171 140.292C187.294 139.226 188.508 138.262 189.801 137.412C190.511 136.931 191.21 136.511 191.904 136.125C192.211 136.567 193.638 138.586 194.655 139.201C195.673 139.816 197.032 140.269 198.151 139.822C198.418 139.725 198.662 139.573 198.866 139.375C199.07 139.177 199.231 138.938 199.336 138.674C199.442 138.41 199.49 138.127 199.479 137.843C199.467 137.559 199.396 137.28 199.269 137.026C198.481 135.51 195.427 135.13 193.928 135.387C193.844 135.387 193.028 135.633 192.441 135.812L193.38 135.298C194.527 134.705 195.617 134.224 196.574 133.81C197.133 133.581 197.625 133.379 198.095 133.2C198.626 133.48 200.774 134.582 201.937 134.654C203.1 134.727 204.543 134.503 205.326 133.592C205.505 133.387 205.641 133.148 205.725 132.889C205.81 132.63 205.841 132.357 205.817 132.086C205.793 131.814 205.714 131.551 205.586 131.311C205.457 131.071 205.281 130.859 205.069 130.689Z" fill="#FF0000"/>
<path d="M165.786 120.706C166.597 121.769 169.253 123.15 169.259 123.15C169.264 123.15 169.639 121.126 169.645 120.991C169.734 119.47 169.007 116.484 167.408 115.868C167.14 115.774 166.856 115.736 166.573 115.758C166.291 115.781 166.016 115.862 165.767 115.998C165.518 116.134 165.3 116.32 165.128 116.545C164.956 116.771 164.833 117.03 164.768 117.306C164.455 118.463 165.12 119.806 165.786 120.706Z" fill="#FF0000"/>
<g opacity="0.5">
<path d="M192.004 135.89C192.004 135.918 193.442 134.408 193.52 134.302C194.432 133.083 195.478 130.186 194.488 128.793C194.317 128.567 194.101 128.379 193.853 128.242C193.605 128.105 193.331 128.022 193.049 127.998C192.767 127.973 192.483 128.009 192.215 128.101C191.947 128.194 191.702 128.342 191.496 128.536C190.589 129.33 190.377 130.801 190.455 131.936C190.55 133.267 192.004 135.885 192.004 135.89Z" fill="white"/>
<path d="M205.069 130.689C203.671 129.71 200.785 130.779 199.571 131.696C199.465 131.78 197.966 133.211 197.994 133.223H198.028C197.569 133.39 197.083 133.569 196.551 133.782C195.578 134.173 194.482 134.632 193.319 135.202C192.063 135.813 190.842 136.493 189.661 137.238C188.338 138.069 187.091 139.016 185.936 140.068C185.922 140.08 185.909 140.093 185.897 140.107C186.143 139.677 186.798 138.429 186.837 138.34C187.396 136.919 187.637 133.866 186.317 132.775C186.091 132.603 185.831 132.48 185.555 132.415C185.279 132.349 184.992 132.343 184.713 132.396C184.434 132.448 184.169 132.559 183.936 132.721C183.702 132.883 183.505 133.092 183.358 133.334C182.698 134.341 182.877 135.812 183.257 136.886C183.682 138.099 185.612 140.102 185.769 140.242C184.617 141.34 183.541 142.516 182.547 143.759C181.988 144.481 181.401 145.225 180.869 145.996C181.071 145.616 181.25 145.269 181.266 145.219C181.826 143.804 182.066 140.745 180.746 139.654C180.521 139.482 180.262 139.359 179.986 139.294C179.71 139.229 179.424 139.222 179.145 139.275C178.866 139.328 178.602 139.439 178.369 139.6C178.136 139.762 177.94 139.971 177.793 140.214C177.128 141.215 177.312 142.691 177.687 143.759C178.062 144.828 179.684 146.595 180.114 147.048L179.46 147.909C178.453 149.313 177.458 150.706 176.434 152.059C176.076 152.534 175.707 152.993 175.316 153.446C175.495 153.105 175.646 152.82 175.662 152.775C176.222 151.354 176.462 148.301 175.142 147.182C174.917 147.009 174.657 146.885 174.381 146.82C174.104 146.754 173.817 146.747 173.538 146.8C173.259 146.853 172.994 146.964 172.76 147.126C172.527 147.288 172.331 147.498 172.184 147.741C171.518 148.748 171.703 150.219 172.083 151.293C172.463 152.367 173.918 153.955 174.427 154.497C174.035 154.956 173.644 155.409 173.241 155.834C172.961 156.119 172.715 156.393 172.413 156.679L171.557 157.484C170.998 157.976 170.439 158.491 169.852 158.96C169.46 159.29 169.085 159.592 168.733 159.9C169.091 159.436 169.785 158.502 169.852 158.418C170.482 157.235 170.797 155.91 170.769 154.57C170.843 154.441 170.907 154.307 170.959 154.167C171.064 153.904 171.111 153.621 171.1 153.337C171.088 153.054 171.017 152.776 170.891 152.522C170.765 152.268 170.587 152.043 170.368 151.862C170.15 151.681 169.896 151.548 169.622 151.472C167.944 151.063 165.651 153.094 164.852 154.391C164.807 154.469 164.382 155.353 164.13 155.918C164.225 155.566 164.332 155.219 164.427 154.855C164.628 154.134 164.807 153.407 164.986 152.618C165.064 152.238 165.148 151.852 165.232 151.466C165.316 151.08 165.366 150.666 165.439 150.264C165.579 149.324 165.679 148.368 165.763 147.4C166.395 147.574 168.649 148.161 169.779 147.959C170.909 147.758 172.29 147.255 172.861 146.198C173.005 145.954 173.096 145.682 173.128 145.4C173.16 145.118 173.132 144.832 173.046 144.562C172.96 144.291 172.818 144.042 172.629 143.831C172.44 143.619 172.208 143.45 171.949 143.334C170.372 142.674 167.782 144.335 166.792 145.493C166.731 145.566 166.116 146.477 165.786 146.986C165.83 146.427 165.875 145.823 165.903 145.23C165.97 143.552 165.993 141.802 166.021 140.079C166.021 139.554 166.021 139.028 166.054 138.502C166.278 138.564 168.946 139.319 170.21 139.123C171.328 138.955 172.721 138.424 173.297 137.361C173.439 137.116 173.529 136.844 173.559 136.562C173.59 136.281 173.561 135.995 173.475 135.726C173.388 135.456 173.246 135.207 173.058 134.995C172.869 134.784 172.638 134.614 172.38 134.498C170.808 133.843 168.213 135.504 167.223 136.662C167.15 136.746 166.267 138.06 166.054 138.407C166.082 137.249 166.121 136.092 166.205 134.956C166.313 133.422 166.519 131.896 166.82 130.387C166.927 130.387 169.706 131.215 171.004 131.013C172.122 130.846 173.509 130.314 174.085 129.252C174.228 129.007 174.318 128.735 174.349 128.454C174.38 128.172 174.352 127.887 174.266 127.617C174.18 127.348 174.038 127.099 173.85 126.887C173.662 126.675 173.432 126.505 173.174 126.388C171.597 125.734 169.002 127.389 168.017 128.553C167.95 128.625 167.273 129.626 166.966 130.107L166.876 130.074C167.222 128.563 167.703 127.086 168.314 125.661C168.638 124.873 168.99 124.14 169.354 123.424C169.857 123.625 172.15 124.543 173.347 124.476C174.544 124.408 175.92 124.051 176.608 123.061C176.777 122.833 176.896 122.573 176.958 122.296C177.019 122.019 177.022 121.733 176.966 121.455C176.911 121.177 176.797 120.914 176.633 120.683C176.469 120.452 176.259 120.258 176.015 120.113C174.522 119.291 171.759 120.672 170.651 121.696C170.59 121.752 170.042 122.395 169.645 122.87C169.812 122.557 169.98 122.227 170.148 121.925C170.774 120.807 171.412 119.8 171.988 118.922C172.318 118.43 172.626 117.988 172.922 117.574C173.515 117.518 175.92 117.244 176.932 116.668C177.944 116.092 179.018 115.108 179.169 113.911C179.215 113.631 179.202 113.345 179.129 113.071C179.057 112.797 178.928 112.541 178.75 112.32C178.572 112.1 178.349 111.919 178.097 111.79C177.844 111.661 177.567 111.587 177.284 111.573C175.579 111.528 173.761 114.006 173.258 115.443C173.213 115.572 172.754 117.591 172.782 117.585H172.821C172.531 117.958 172.223 118.383 171.899 118.86C171.3 119.727 170.635 120.712 169.986 121.83C169.272 123.03 168.628 124.27 168.056 125.544C167.412 126.969 166.894 128.447 166.507 129.962C166.51 129.981 166.51 129.999 166.507 130.018C166.507 129.52 166.339 128.128 166.317 128.021C166.004 126.534 164.511 123.838 162.816 123.67C162.533 123.649 162.249 123.687 161.982 123.783C161.715 123.879 161.471 124.03 161.267 124.226C161.062 124.422 160.901 124.66 160.794 124.922C160.687 125.185 160.637 125.467 160.646 125.751C160.646 126.953 161.614 128.083 162.52 128.765C163.543 129.543 166.256 130.152 166.474 130.197C166.123 131.75 165.874 133.325 165.73 134.912C165.646 135.834 165.584 136.763 165.534 137.708C165.495 137.277 165.456 136.891 165.445 136.841C165.126 135.348 163.632 132.658 161.938 132.484C161.655 132.463 161.371 132.501 161.104 132.597C160.837 132.693 160.593 132.844 160.389 133.04C160.184 133.237 160.023 133.474 159.916 133.736C159.809 133.999 159.758 134.281 159.768 134.565C159.768 135.767 160.735 136.897 161.641 137.585C162.548 138.273 164.869 138.843 165.478 138.989C165.478 139.347 165.445 139.705 165.433 140.063C165.366 141.785 165.31 143.508 165.204 145.191C165.165 145.784 165.103 146.371 165.047 146.953C165.014 146.572 164.975 146.248 164.969 146.203C164.65 144.71 163.157 142.02 161.463 141.847C161.18 141.825 160.896 141.864 160.629 141.959C160.362 142.055 160.118 142.206 159.913 142.402C159.708 142.599 159.547 142.836 159.44 143.099C159.333 143.361 159.283 143.644 159.293 143.927C159.293 145.135 160.26 146.259 161.166 146.947C162.072 147.635 164.169 148.155 164.891 148.323C164.818 148.921 164.74 149.52 164.639 150.09C164.561 150.482 164.516 150.868 164.415 151.254L164.147 152.372C163.946 153.094 163.75 153.843 163.537 154.542C163.392 155.029 163.247 155.493 163.101 155.963C163.146 155.37 163.207 154.212 163.202 154.111C163.118 152.596 162.05 149.704 160.405 149.279C160.129 149.216 159.843 149.212 159.565 149.266C159.288 149.321 159.024 149.433 158.793 149.596C158.561 149.759 158.367 149.969 158.221 150.212C158.076 150.455 157.984 150.726 157.95 151.008C157.766 152.199 158.549 153.457 159.343 154.274C160.137 155.09 162.699 156.158 163.012 156.281C162.766 157.053 162.525 157.797 162.285 158.519C161.451 160.951 160.668 162.948 160.103 164.335C160.103 164.385 160.064 164.43 160.042 164.475L161.06 165.034C161.093 164.945 161.133 164.855 161.166 164.76C161.725 163.345 162.458 161.309 163.241 158.832C163.493 158.049 163.744 157.21 163.996 156.343C164.849 156.45 165.709 156.506 166.569 156.511C166.876 157.758 168.302 159.805 168.487 160.068C167.861 160.577 167.245 161.069 166.658 161.522C164.622 163.093 162.866 164.318 161.625 165.168L161.479 165.269L162.598 165.884C163.806 165.017 165.394 163.815 167.279 162.316C167.917 161.802 168.593 161.237 169.276 160.638C169.527 160.851 171.569 162.584 172.777 162.931C173.867 163.244 175.349 163.345 176.311 162.624C176.544 162.462 176.739 162.253 176.886 162.01C177.032 161.767 177.126 161.497 177.16 161.215C177.195 160.934 177.17 160.649 177.088 160.378C177.005 160.107 176.866 159.857 176.68 159.643C175.528 158.384 172.48 158.804 171.088 159.441C171.009 159.481 170.17 160.001 169.645 160.314C169.924 160.073 170.204 159.844 170.478 159.592C171.037 159.106 171.597 158.597 172.189 158.049L173.028 157.227C173.314 156.953 173.588 156.634 173.867 156.337C174.505 155.633 175.114 154.889 175.713 154.128C176.149 154.62 177.709 156.365 178.744 156.835C179.779 157.305 181.227 157.629 182.29 157.064C182.544 156.939 182.768 156.761 182.949 156.544C183.13 156.326 183.263 156.073 183.34 155.8C183.417 155.528 183.436 155.242 183.396 154.962C183.356 154.681 183.257 154.413 183.106 154.173C182.156 152.758 179.08 152.708 177.614 153.127C177.519 153.155 176.496 153.575 175.937 153.815C176.289 153.356 176.652 152.898 176.994 152.417C177.995 151.035 178.962 149.621 179.935 148.189L180.836 146.891C180.987 147.065 182.799 149.168 183.962 149.688C184.991 150.163 186.44 150.487 187.502 149.917C187.757 149.793 187.983 149.616 188.165 149.398C188.347 149.181 188.481 148.927 188.558 148.654C188.635 148.381 188.654 148.095 188.613 147.814C188.571 147.534 188.471 147.265 188.319 147.025C187.368 145.611 184.292 145.56 182.827 145.985C182.721 146.013 181.255 146.623 180.892 146.796C181.552 145.845 182.223 144.9 182.922 144C183.854 142.776 184.867 141.616 185.953 140.527C186.026 140.611 187.905 142.809 189.091 143.357C190.125 143.838 191.574 144.156 192.636 143.592C192.891 143.467 193.116 143.29 193.298 143.072C193.479 142.854 193.613 142.601 193.69 142.328C193.767 142.055 193.785 141.769 193.745 141.489C193.704 141.208 193.604 140.94 193.453 140.7C192.502 139.28 189.426 139.235 187.961 139.654C187.866 139.682 186.753 140.146 186.227 140.376L186.171 140.292C187.294 139.226 188.508 138.262 189.801 137.412C190.511 136.931 191.21 136.511 191.904 136.125C192.211 136.567 193.638 138.586 194.655 139.201C195.673 139.816 197.032 140.269 198.151 139.822C198.418 139.725 198.662 139.573 198.866 139.375C199.07 139.177 199.231 138.938 199.336 138.674C199.442 138.41 199.49 138.127 199.479 137.843C199.467 137.559 199.396 137.28 199.269 137.026C198.481 135.51 195.427 135.13 193.928 135.387C193.844 135.387 193.028 135.633 192.441 135.812L193.38 135.298C194.527 134.705 195.617 134.224 196.574 133.81C197.133 133.581 197.625 133.379 198.095 133.2C198.626 133.48 200.774 134.582 201.937 134.654C203.1 134.727 204.543 134.503 205.326 133.592C205.505 133.387 205.641 133.148 205.725 132.889C205.81 132.63 205.841 132.357 205.817 132.086C205.793 131.814 205.714 131.551 205.586 131.311C205.457 131.071 205.281 130.859 205.069 130.689Z" fill="white"/>
<path d="M165.786 120.706C166.597 121.769 169.253 123.15 169.259 123.15C169.264 123.15 169.639 121.126 169.645 120.991C169.734 119.47 169.007 116.484 167.408 115.868C167.14 115.774 166.856 115.736 166.573 115.758C166.291 115.781 166.016 115.862 165.767 115.998C165.518 116.134 165.3 116.32 165.128 116.545C164.956 116.771 164.833 117.03 164.768 117.306C164.455 118.463 165.12 119.806 165.786 120.706Z" fill="white"/>
</g>
<path d="M56.6209 92.4292C56.6545 92.4292 56.1847 90.0859 56.1344 89.946C55.5751 88.2682 53.5617 85.3544 51.5931 85.36C51.2661 85.3702 50.9449 85.4492 50.6504 85.5916C50.356 85.7341 50.0947 85.9369 49.8838 86.1869C49.6728 86.4369 49.5167 86.7286 49.4258 87.0428C49.3349 87.357 49.3111 87.6869 49.356 88.0109C49.5014 89.3924 50.743 90.5724 51.8671 91.2491C53.1758 92.0489 56.6209 92.4292 56.6209 92.4292Z" fill="#FF0000"/>
<path d="M60.4297 76.6521C58.5729 77.3177 57.6333 80.7516 57.7116 82.5077C57.7116 82.6587 58.064 85.0245 58.0975 85.0077H58.1367C57.9857 85.567 57.8347 86.1262 57.6781 86.7694C57.3984 87.9495 57.1188 89.2861 56.8615 90.7626C56.5959 92.3528 56.4204 93.9568 56.3358 95.5668C56.2376 97.3677 56.2994 99.1738 56.5204 100.964C56.5231 100.986 56.5231 101.009 56.5204 101.031C56.2799 100.505 55.5528 99.0678 55.4801 98.9616C54.5182 97.4907 51.7889 95.2144 49.8874 95.7402C49.5749 95.8369 49.2862 95.9981 49.0399 96.2134C48.7937 96.4288 48.5953 96.6934 48.4578 96.9901C48.3202 97.2869 48.2464 97.6092 48.2412 97.9363C48.236 98.2634 48.2996 98.5879 48.4277 98.8889C48.931 100.181 50.4411 100.992 51.705 101.35C53.1312 101.758 56.3078 101.277 56.5595 101.238C56.8282 103.055 57.2187 104.853 57.7284 106.618C58.0192 107.647 58.3436 108.676 58.6847 109.705C58.461 109.258 58.2541 108.861 58.2206 108.81C57.253 107.34 54.5293 105.063 52.6278 105.589C52.315 105.684 52.0258 105.845 51.7791 106.059C51.5324 106.274 51.3337 106.538 51.196 106.835C51.0582 107.131 50.9846 107.453 50.9798 107.78C50.975 108.107 51.0391 108.432 51.1681 108.732C51.6714 110.03 53.1815 110.841 54.4454 111.198C55.7094 111.556 58.4387 111.199 59.1601 111.103C59.2943 111.495 59.423 111.892 59.5572 112.283C60.206 114.163 60.8659 116.042 61.4532 117.876C61.6601 118.531 61.8391 119.185 62.0124 119.834C61.8111 119.437 61.6433 119.107 61.6097 119.062C60.6478 117.591 57.9185 115.315 56.017 115.84C55.7042 115.936 55.415 116.096 55.1683 116.311C54.9216 116.525 54.7229 116.789 54.5852 117.086C54.4474 117.383 54.3738 117.705 54.369 118.032C54.3642 118.359 54.4283 118.683 54.5573 118.984C55.0606 120.281 56.5707 121.092 57.8347 121.45C59.0986 121.808 61.565 121.495 62.4207 121.372C62.5885 122.048 62.7563 122.72 62.8849 123.379C62.9688 123.833 63.075 124.263 63.131 124.727C63.1869 125.192 63.254 125.628 63.3211 126.07C63.4106 126.931 63.5057 127.82 63.5728 128.665C63.6231 129.224 63.6567 129.783 63.6958 130.342C63.5001 129.688 63.0806 128.413 63.0359 128.312C62.3395 126.93 61.302 125.748 60.0214 124.878C59.95 124.721 59.8638 124.572 59.7641 124.431C59.587 124.155 59.3539 123.92 59.08 123.741C58.8062 123.561 58.4976 123.441 58.1744 123.388C57.8512 123.336 57.5205 123.351 57.2038 123.435C56.887 123.518 56.5913 123.667 56.3358 123.872C54.8481 125.164 55.2172 128.693 55.9052 130.314C55.9443 130.41 56.5036 131.394 56.8615 131.992C56.5931 131.662 56.3414 131.338 56.0618 130.997C55.5025 130.331 54.9432 129.677 54.3392 128.972L53.4164 127.971C53.1144 127.63 52.7564 127.311 52.4209 126.976C51.6379 126.215 50.799 125.482 49.9433 124.739C50.5026 124.258 52.5831 122.501 53.1759 121.344C53.7687 120.186 54.1826 118.508 53.5674 117.261C53.4329 116.963 53.237 116.696 52.9925 116.479C52.748 116.262 52.4604 116.098 52.1484 115.999C51.8365 115.901 51.5073 115.869 51.1823 115.906C50.8572 115.943 50.5437 116.049 50.2621 116.215C48.5843 117.261 48.4277 120.807 48.8583 122.513C48.8863 122.619 49.3337 123.805 49.5909 124.453C49.0708 124.028 48.5563 123.598 48.0194 123.178C46.459 121.976 44.8483 120.807 43.2432 119.632C42.751 119.274 42.2645 118.905 41.7779 118.547C41.9904 118.374 44.4792 116.366 45.1335 115.046C45.7208 113.872 46.1458 112.211 45.5306 110.964C45.3961 110.665 45.2002 110.399 44.9557 110.181C44.7112 109.964 44.4236 109.801 44.1117 109.702C43.7998 109.603 43.4705 109.572 43.1455 109.609C42.8204 109.646 42.5069 109.751 42.2253 109.918C40.5475 110.964 40.3853 114.509 40.8215 116.215C40.8215 116.344 41.4982 118.055 41.6828 118.48C40.609 117.68 39.552 116.875 38.5341 116.036C37.1531 114.913 35.8455 113.702 34.6192 112.412C34.7199 112.334 37.3261 110.248 37.9748 108.894C38.5621 107.72 38.9871 106.059 38.3719 104.812C38.2374 104.513 38.0415 104.247 37.797 104.029C37.5525 103.812 37.2649 103.649 36.953 103.55C36.641 103.451 36.3118 103.42 35.9868 103.457C35.6617 103.494 35.3482 103.599 35.0666 103.766C33.3888 104.812 33.2266 108.357 33.6628 110.063C33.6628 110.175 34.1829 111.478 34.429 112.093L34.334 112.149C33.1408 110.817 32.0701 109.379 31.1349 107.854C30.6092 107.026 30.1562 106.176 29.7311 105.388C30.2512 105.046 32.6393 103.475 33.3832 102.323C34.127 101.171 34.6975 99.6159 34.2221 98.3128C34.1211 98.0015 33.9558 97.7148 33.7367 97.4716C33.5177 97.2284 33.2499 97.034 32.9508 96.901C32.6517 96.7681 32.328 96.6996 32.0007 96.7C31.6733 96.7004 31.3498 96.7698 31.051 96.9035C29.2781 97.7647 28.7244 101.271 28.9649 103.011C28.9649 103.106 29.2166 104.057 29.4012 104.744C29.2166 104.375 29.0208 103.995 28.8419 103.626C28.1931 102.284 27.6842 101.02 27.2368 99.89C26.9907 99.2468 26.7837 98.6652 26.5936 98.1115C26.9348 97.5131 28.2714 95.069 28.4056 93.7324C28.5399 92.3957 28.3329 90.7235 27.2871 89.7839C27.0539 89.5545 26.7751 89.3768 26.4687 89.2622C26.1623 89.1476 25.8353 89.0987 25.5088 89.1188C25.1823 89.1388 24.8637 89.2273 24.5736 89.3785C24.2836 89.5297 24.0286 89.7402 23.8252 89.9964C22.6507 91.5736 23.7749 94.946 24.7927 96.3777C24.8766 96.5008 26.4706 98.2849 26.4706 98.2513V98.2122C26.6439 98.7714 26.8341 99.3307 27.0298 99.9347C27.4493 101.053 27.9359 102.356 28.5566 103.715C29.2077 105.189 29.9454 106.624 30.7658 108.011C31.6793 109.568 32.7273 111.043 33.8977 112.418L33.9425 112.462C33.4503 112.16 32.0521 111.344 31.9347 111.31C30.3184 110.617 26.7893 110.225 25.4918 111.707C25.2842 111.961 25.132 112.255 25.0452 112.57C24.9584 112.886 24.9389 113.216 24.9879 113.54C25.037 113.864 25.1535 114.174 25.3299 114.45C25.5063 114.725 25.7386 114.961 26.012 115.141C27.1305 115.941 28.8531 115.785 30.1002 115.387C31.5152 114.94 33.8977 112.787 34.0879 112.591C35.3064 113.957 36.6143 115.241 38.0028 116.433C38.8137 117.132 39.6526 117.815 40.5027 118.48L39.6247 117.988C38.0084 117.295 34.4794 116.903 33.1818 118.391C32.974 118.643 32.8216 118.936 32.7344 119.251C32.6472 119.566 32.6272 119.896 32.6758 120.22C32.7243 120.543 32.8402 120.852 33.016 121.128C33.1919 121.403 33.4237 121.639 33.6964 121.819C34.8149 122.624 36.5375 122.462 37.7903 122.065C39.043 121.668 41.1459 119.873 41.6716 119.386L42.656 120.152C44.2387 121.361 45.8214 122.563 47.3371 123.788C47.8684 124.218 48.3773 124.666 48.8919 125.108C48.506 124.89 48.1816 124.705 48.1257 124.683C46.5149 123.989 42.9803 123.598 41.6884 125.08C41.4805 125.332 41.328 125.626 41.2407 125.942C41.1535 126.257 41.1335 126.587 41.182 126.911C41.2305 127.235 41.3464 127.545 41.5223 127.821C41.6982 128.097 41.9301 128.333 42.2029 128.514C43.3215 129.313 45.044 129.157 46.2968 128.76C47.5496 128.363 49.4344 126.735 50.0775 126.165C50.5921 126.634 51.101 127.104 51.5764 127.585C51.8952 127.915 52.2195 128.217 52.5215 128.57L53.422 129.587C53.9813 130.259 54.5405 130.946 55.0607 131.612C55.4242 132.071 55.7653 132.518 56.1065 132.965C55.5808 132.529 54.5293 131.696 54.4287 131.64C52.9354 130.706 49.5071 129.783 48.0026 131.081C47.7587 131.299 47.5637 131.566 47.4301 131.865C47.2965 132.164 47.2275 132.487 47.2275 132.814C47.2275 133.142 47.2965 133.465 47.4301 133.764C47.5637 134.063 47.7587 134.33 48.0026 134.548C49.0037 135.516 50.7151 135.616 52.0126 135.415C53.4388 135.191 56.0282 133.502 56.347 133.29C56.9063 134.034 57.4655 134.761 57.9521 135.46C59.697 137.865 61.0561 139.934 61.9845 141.394L62.0795 141.545L63.282 140.957L63.0918 140.672C62.1187 139.218 60.7037 137.154 58.8917 134.766C58.3324 134.006 57.7004 133.212 57.0517 132.401C57.7175 131.665 58.3411 130.892 58.9196 130.085C60.3011 130.644 63.1869 130.644 63.556 130.644C63.6175 131.578 63.6679 132.484 63.7014 133.34C63.8245 136.304 63.8189 138.782 63.7853 140.516V140.717L65.1052 140.074C65.1052 138.351 65.0437 136.03 64.8647 133.279C64.8088 132.333 64.7305 131.321 64.6354 130.287C65.0045 130.197 67.9911 129.425 69.1096 128.525C70.1331 127.703 71.2125 126.372 71.1789 124.985C71.1814 124.657 71.1148 124.333 70.9835 124.033C70.8523 123.732 70.6593 123.463 70.4171 123.243C70.1749 123.022 69.889 122.855 69.578 122.753C69.2669 122.65 68.9377 122.614 68.6119 122.647C66.66 122.899 65.0213 126.047 64.6969 127.781C64.6969 127.882 64.5963 129.011 64.5515 129.722C64.5124 129.302 64.4788 128.888 64.4341 128.452C64.3446 127.596 64.2327 126.735 64.1153 125.818L63.8972 124.47C63.8357 124.023 63.7126 123.558 63.6175 123.094C63.3826 122.02 63.0918 120.952 62.773 119.873C63.5225 119.8 66.1958 119.481 67.3423 118.827C68.4888 118.173 69.7472 117.021 69.9206 115.639C69.9729 115.316 69.9565 114.986 69.8724 114.669C69.7883 114.353 69.6384 114.058 69.4326 113.804C69.2267 113.549 68.9695 113.341 68.6778 113.193C68.386 113.045 68.0663 112.96 67.7394 112.943C65.7708 112.893 63.6735 115.74 63.0974 117.418C63.0583 117.518 62.7786 118.76 62.6332 119.442C62.4375 118.799 62.2473 118.156 62.0292 117.507C61.3916 115.645 60.6925 113.782 59.999 111.914L59.3782 110.203C59.6467 110.175 62.8346 109.873 64.1153 109.135C65.2338 108.48 66.5202 107.328 66.6936 105.953C66.7458 105.629 66.7294 105.298 66.6454 104.982C66.5613 104.665 66.4116 104.37 66.2058 104.115C66 103.86 65.7429 103.652 65.4511 103.503C65.1593 103.354 64.8395 103.268 64.5124 103.251C62.5437 103.206 60.4465 106.048 59.8704 107.725C59.8257 107.854 59.423 109.633 59.3391 110.091C58.8861 108.833 58.4443 107.574 58.064 106.316C57.5331 104.621 57.1146 102.893 56.8112 101.143C56.9342 101.143 60.2619 100.83 61.5762 100.075C62.6947 99.4202 63.9811 98.2681 64.1544 96.8867C64.2059 96.5637 64.1888 96.2336 64.1044 95.9177C64.0199 95.6018 63.87 95.3072 63.6643 95.053C63.4586 94.7988 63.2018 94.5907 62.9104 94.4422C62.6191 94.2937 62.2998 94.2081 61.9733 94.191C60.0046 94.1406 57.9074 96.9873 57.3313 98.6652C57.2922 98.777 56.9846 100.13 56.8503 100.779H56.7385C56.4818 99.0093 56.3826 97.22 56.4421 95.4326C56.4421 94.4482 56.5371 93.5087 56.6266 92.597C57.253 92.597 60.1109 92.597 61.3637 92.0378C62.6164 91.4785 63.9587 90.5109 64.2831 89.1575C64.3706 88.842 64.3906 88.5116 64.3417 88.1878C64.2928 87.8641 64.1761 87.5543 63.9993 87.2787C63.8224 87.0032 63.5894 86.7681 63.3155 86.5887C63.0415 86.4094 62.7328 86.2899 62.4095 86.2381C60.4576 85.9696 58.0584 88.5926 57.3033 90.153C57.2586 90.2425 56.9398 91.1653 56.7105 91.8308C56.7608 91.417 56.8056 90.9919 56.8559 90.6004C57.0573 89.1239 57.3313 87.8041 57.583 86.6016C57.734 85.9305 57.8794 85.3265 58.0248 84.7616C58.64 84.4484 61.112 83.1565 61.9397 82.1051C62.7674 81.0536 63.5336 79.5548 63.1981 78.1901C63.0149 77.6324 62.6281 77.1643 62.115 76.8792C61.6018 76.5941 61 76.513 60.4297 76.6521Z" fill="#FF0000"/>
<path d="M24.8263 107.01C26.3643 106.948 29.4403 105.371 29.4459 105.371C29.4515 105.371 27.768 103.659 27.6674 103.564C26.2916 102.446 22.9918 101.159 21.3532 102.244C21.085 102.432 20.8596 102.675 20.6916 102.956C20.5236 103.237 20.4169 103.551 20.3783 103.876C20.3398 104.201 20.3704 104.531 20.468 104.843C20.5656 105.156 20.7281 105.444 20.9449 105.69C21.8285 106.769 23.512 107.082 24.8263 107.01Z" fill="#FF0000"/>
<g opacity="0.5">
<path d="M56.621 92.4292C56.6546 92.4292 56.1848 90.0859 56.1344 89.946C55.5752 88.2682 53.5618 85.3544 51.5931 85.36C51.2662 85.3702 50.945 85.4492 50.6505 85.5916C50.356 85.7341 50.0948 85.9369 49.8838 86.1869C49.6728 86.4369 49.5168 86.7286 49.4259 87.0428C49.335 87.357 49.3112 87.6869 49.356 88.0109C49.5014 89.3924 50.743 90.5724 51.8672 91.2491C53.1759 92.0489 56.621 92.4292 56.621 92.4292Z" fill="white"/>
<path d="M60.4297 76.6521C58.573 77.3177 57.6334 80.7516 57.7117 82.5077C57.7117 82.6587 58.064 85.0245 58.0976 85.0077H58.1367C57.9857 85.567 57.8347 86.1262 57.6781 86.7694C57.3985 87.9495 57.1188 89.2861 56.8616 90.7626C56.596 92.3528 56.4205 93.9568 56.3359 95.5668C56.2377 97.3677 56.2994 99.1738 56.5204 100.964C56.5231 100.986 56.5231 101.009 56.5204 101.031C56.2799 100.505 55.5529 99.0678 55.4802 98.9616C54.5182 97.4907 51.789 95.2144 49.8874 95.7402C49.575 95.8369 49.2862 95.9981 49.04 96.2134C48.7937 96.4288 48.5954 96.6934 48.4578 96.9901C48.3202 97.2869 48.2465 97.6092 48.2413 97.9363C48.2361 98.2634 48.2996 98.5879 48.4277 98.8889C48.9311 100.181 50.4411 100.992 51.7051 101.35C53.1312 101.758 56.3079 101.277 56.5596 101.238C56.8282 103.055 57.2187 104.853 57.7284 106.618C58.0193 107.647 58.3437 108.676 58.6848 109.705C58.4611 109.258 58.2542 108.861 58.2206 108.81C57.2531 107.34 54.5294 105.063 52.6279 105.589C52.3151 105.684 52.0259 105.845 51.7792 106.059C51.5325 106.274 51.3338 106.538 51.196 106.835C51.0583 107.131 50.9846 107.453 50.9798 107.78C50.975 108.107 51.0392 108.432 51.1682 108.732C51.6715 110.03 53.1816 110.841 54.4455 111.198C55.7095 111.556 58.4387 111.199 59.1602 111.103C59.2944 111.495 59.423 111.892 59.5573 112.283C60.206 114.163 60.866 116.042 61.4532 117.876C61.6601 118.531 61.8391 119.185 62.0125 119.834C61.8111 119.437 61.6434 119.107 61.6098 119.062C60.6479 117.591 57.9186 115.315 56.0171 115.84C55.7043 115.936 55.4151 116.096 55.1684 116.311C54.9217 116.525 54.723 116.789 54.5852 117.086C54.4475 117.383 54.3738 117.705 54.369 118.032C54.3642 118.359 54.4284 118.683 54.5574 118.984C55.0607 120.281 56.5708 121.092 57.8347 121.45C59.0987 121.808 61.5651 121.495 62.4208 121.372C62.5885 122.048 62.7563 122.72 62.885 123.379C62.9688 123.833 63.0751 124.263 63.131 124.727C63.187 125.192 63.2541 125.628 63.3212 126.07C63.4107 126.931 63.5057 127.82 63.5729 128.665C63.6232 129.224 63.6567 129.783 63.6959 130.342C63.5002 129.688 63.0807 128.413 63.036 128.312C62.3396 126.93 61.302 125.748 60.0215 124.878C59.95 124.721 59.8639 124.572 59.7642 124.431C59.587 124.155 59.354 123.92 59.0801 123.741C58.8062 123.561 58.4977 123.441 58.1745 123.388C57.8513 123.336 57.5206 123.351 57.2038 123.435C56.8871 123.518 56.5914 123.667 56.3359 123.872C54.8482 125.164 55.2173 128.693 55.9052 130.314C55.9444 130.41 56.5036 131.394 56.8616 131.992C56.5931 131.662 56.3414 131.338 56.0618 130.997C55.5025 130.331 54.9433 129.677 54.3392 128.972L53.4164 127.971C53.1144 127.63 52.7565 127.311 52.4209 126.976C51.638 126.215 50.799 125.482 49.9434 124.739C50.5026 124.258 52.5831 122.501 53.176 121.344C53.7688 120.186 54.1826 118.508 53.5674 117.261C53.4329 116.963 53.237 116.696 52.9925 116.479C52.748 116.262 52.4604 116.098 52.1485 115.999C51.8366 115.901 51.5074 115.869 51.1823 115.906C50.8573 115.943 50.5437 116.049 50.2621 116.215C48.5843 117.261 48.4277 120.807 48.8584 122.513C48.8863 122.619 49.3337 123.805 49.591 124.453C49.0709 124.028 48.5564 123.598 48.0194 123.178C46.4591 121.976 44.8484 120.807 43.2433 119.632C42.7511 119.274 42.2645 118.905 41.778 118.547C41.9905 118.374 44.4792 116.366 45.1336 115.046C45.7208 113.872 46.1459 112.211 45.5307 110.964C45.3962 110.665 45.2003 110.399 44.9558 110.181C44.7113 109.964 44.4237 109.801 44.1117 109.702C43.7998 109.603 43.4706 109.572 43.1455 109.609C42.8205 109.646 42.507 109.751 42.2254 109.918C40.5475 110.964 40.3854 114.509 40.8216 116.215C40.8216 116.344 41.4983 118.055 41.6829 118.48C40.6091 117.68 39.552 116.875 38.5342 116.036C37.1532 114.913 35.8455 113.702 34.6192 112.412C34.7199 112.334 37.3261 110.248 37.9749 108.894C38.5621 107.72 38.9872 106.059 38.372 104.812C38.2374 104.513 38.0415 104.247 37.797 104.029C37.5525 103.812 37.2649 103.649 36.953 103.55C36.6411 103.451 36.3119 103.42 35.9868 103.457C35.6618 103.494 35.3482 103.599 35.0667 103.766C33.3888 104.812 33.2266 108.357 33.6629 110.063C33.6629 110.175 34.183 111.478 34.4291 112.093L34.334 112.149C33.1408 110.817 32.0702 109.379 31.135 107.854C30.6092 107.026 30.1562 106.176 29.7312 105.388C30.2513 105.046 32.6394 103.475 33.3832 102.323C34.1271 101.171 34.6975 99.6159 34.2222 98.3128C34.1212 98.0015 33.9558 97.7148 33.7368 97.4716C33.5178 97.2284 33.25 97.034 32.9509 96.901C32.6518 96.7681 32.328 96.6996 32.0007 96.7C31.6734 96.7004 31.3498 96.7698 31.0511 96.9035C29.2782 97.7647 28.7245 101.271 28.965 103.011C28.965 103.106 29.2167 104.057 29.4012 104.744C29.2167 104.375 29.0209 103.995 28.8419 103.626C28.1932 102.284 27.6842 101.02 27.2368 99.89C26.9907 99.2468 26.7838 98.6652 26.5937 98.1115C26.9348 97.5131 28.2715 95.069 28.4057 93.7324C28.5399 92.3957 28.333 90.7235 27.2872 89.7839C27.054 89.5545 26.7751 89.3768 26.4688 89.2622C26.1624 89.1476 25.8353 89.0987 25.5089 89.1188C25.1824 89.1388 24.8637 89.2273 24.5737 89.3785C24.2836 89.5297 24.0286 89.7402 23.8253 89.9964C22.6508 91.5736 23.7749 94.946 24.7928 96.3777C24.8767 96.5008 26.4706 98.2849 26.4706 98.2513V98.2122C26.644 98.7714 26.8341 99.3307 27.0299 99.9347C27.4493 101.053 27.9359 102.356 28.5567 103.715C29.2078 105.189 29.9455 106.624 30.7658 108.011C31.6794 109.568 32.7273 111.043 33.8978 112.418L33.9425 112.462C33.4504 112.16 32.0522 111.344 31.9347 111.31C30.3184 110.617 26.7894 110.225 25.4919 111.707C25.2842 111.961 25.1321 112.255 25.0453 112.57C24.9585 112.886 24.939 113.216 24.988 113.54C25.037 113.864 25.1535 114.174 25.3299 114.45C25.5063 114.725 25.7387 114.961 26.012 115.141C27.1306 115.941 28.8531 115.785 30.1003 115.387C31.5153 114.94 33.8978 112.787 34.0879 112.591C35.3065 113.957 36.6143 115.241 38.0029 116.433C38.8138 117.132 39.6527 117.815 40.5028 118.48L39.6247 117.988C38.0084 117.295 34.4794 116.903 33.1819 118.391C32.9741 118.643 32.8217 118.936 32.7345 119.251C32.6473 119.566 32.6273 119.896 32.6758 120.22C32.7243 120.543 32.8403 120.852 33.0161 121.128C33.1919 121.403 33.4237 121.639 33.6964 121.819C34.815 122.624 36.5376 122.462 37.7903 122.065C39.0431 121.668 41.146 119.873 41.6717 119.386L42.656 120.152C44.2388 121.361 45.8215 122.563 47.3371 123.788C47.8684 124.218 48.3774 124.666 48.8919 125.108C48.506 124.89 48.1816 124.705 48.1257 124.683C46.515 123.989 42.9804 123.598 41.6885 125.08C41.4806 125.332 41.328 125.626 41.2408 125.942C41.1536 126.257 41.1336 126.587 41.1821 126.911C41.2306 127.235 41.3465 127.545 41.5224 127.821C41.6982 128.097 41.9301 128.333 42.203 128.514C43.3215 129.313 45.0441 129.157 46.2969 128.76C47.5497 128.363 49.4344 126.735 50.0776 126.165C50.5921 126.634 51.101 127.104 51.5764 127.585C51.8952 127.915 52.2196 128.217 52.5216 128.57L53.422 129.587C53.9813 130.259 54.5406 130.946 55.0607 131.612C55.4242 132.071 55.7654 132.518 56.1066 132.965C55.5808 132.529 54.5294 131.696 54.4287 131.64C52.9355 130.706 49.5071 129.783 48.0027 131.081C47.7588 131.299 47.5637 131.566 47.4302 131.865C47.2966 132.164 47.2276 132.487 47.2276 132.814C47.2276 133.142 47.2966 133.465 47.4302 133.764C47.5637 134.063 47.7588 134.33 48.0027 134.548C49.0038 135.516 50.7151 135.616 52.0127 135.415C53.4388 135.191 56.0283 133.502 56.347 133.29C56.9063 134.034 57.4656 134.761 57.9522 135.46C59.6971 137.865 61.0561 139.934 61.9845 141.394L62.0796 141.545L63.282 140.957L63.0919 140.672C62.1188 139.218 60.7038 137.154 58.8917 134.766C58.3325 134.006 57.7005 133.212 57.0517 132.401C57.7175 131.665 58.3412 130.892 58.9197 130.085C60.3011 130.644 63.187 130.644 63.5561 130.644C63.6176 131.578 63.6679 132.484 63.7015 133.34C63.8245 136.304 63.8189 138.782 63.7854 140.516V140.717L65.1053 140.074C65.1053 138.351 65.0438 136.03 64.8648 133.279C64.8089 132.333 64.7306 131.321 64.6355 130.287C65.0046 130.197 67.9911 129.425 69.1097 128.525C70.1331 127.703 71.2125 126.372 71.179 124.985C71.1814 124.657 71.1149 124.333 70.9836 124.033C70.8523 123.732 70.6593 123.463 70.4172 123.243C70.175 123.022 69.8891 122.855 69.578 122.753C69.267 122.65 68.9378 122.614 68.6119 122.647C66.6601 122.899 65.0214 126.047 64.697 127.781C64.697 127.882 64.5963 129.011 64.5516 129.722C64.5124 129.302 64.4789 128.888 64.4341 128.452C64.3447 127.596 64.2328 126.735 64.1154 125.818L63.8972 124.47C63.8357 124.023 63.7127 123.558 63.6176 123.094C63.3827 122.02 63.0919 120.952 62.7731 119.873C63.5225 119.8 66.1959 119.481 67.3424 118.827C68.4889 118.173 69.7472 117.021 69.9206 115.639C69.9729 115.316 69.9565 114.986 69.8725 114.669C69.7884 114.353 69.6385 114.058 69.4327 113.804C69.2268 113.549 68.9696 113.341 68.6778 113.193C68.3861 113.045 68.0663 112.96 67.7395 112.943C65.7708 112.893 63.6735 115.74 63.0975 117.418C63.0583 117.518 62.7787 118.76 62.6333 119.442C62.4375 118.799 62.2474 118.156 62.0293 117.507C61.3917 115.645 60.6926 113.782 59.9991 111.914L59.3783 110.203C59.6468 110.175 62.8346 109.873 64.1154 109.135C65.2339 108.48 66.5202 107.328 66.6936 105.953C66.7459 105.629 66.7295 105.298 66.6454 104.982C66.5614 104.665 66.4116 104.37 66.2058 104.115C66.0001 103.86 65.7429 103.652 65.4512 103.503C65.1594 103.354 64.8395 103.268 64.5124 103.251C62.5438 103.206 60.4465 106.048 59.8705 107.725C59.8257 107.854 59.423 109.633 59.3392 110.091C58.8861 108.833 58.4443 107.574 58.064 106.316C57.5332 104.621 57.1147 102.893 56.8112 101.143C56.9343 101.143 60.262 100.83 61.5763 100.075C62.6948 99.4202 63.9811 98.2681 64.1545 96.8867C64.2059 96.5637 64.1889 96.2336 64.1044 95.9177C64.02 95.6018 63.8701 95.3072 63.6644 95.053C63.4587 94.7988 63.2018 94.5907 62.9105 94.4422C62.6192 94.2937 62.2999 94.2081 61.9733 94.191C60.0047 94.1406 57.9074 96.9873 57.3314 98.6652C57.2922 98.777 56.9846 100.13 56.8504 100.779H56.7385C56.4819 99.0093 56.3827 97.22 56.4421 95.4326C56.4421 94.4482 56.5372 93.5087 56.6267 92.597C57.2531 92.597 60.111 92.597 61.3637 92.0378C62.6165 91.4785 63.9588 90.5109 64.2831 89.1575C64.3707 88.842 64.3907 88.5116 64.3418 88.1878C64.2929 87.8641 64.1762 87.5543 63.9993 87.2787C63.8225 87.0032 63.5895 86.7681 63.3155 86.5887C63.0416 86.4094 62.7329 86.2899 62.4096 86.2381C60.4577 85.9696 58.0584 88.5926 57.3034 90.153C57.2587 90.2425 56.9399 91.1653 56.7106 91.8308C56.7609 91.417 56.8056 90.9919 56.856 90.6004C57.0573 89.1239 57.3314 87.8041 57.583 86.6016C57.734 85.9305 57.8795 85.3265 58.0249 84.7616C58.6401 84.4484 61.1121 83.1565 61.9398 82.1051C62.7675 81.0536 63.5337 79.5548 63.1981 78.1901C63.015 77.6324 62.6282 77.1643 62.115 76.8792C61.6019 76.5941 61.0001 76.513 60.4297 76.6521Z" fill="white"/>
<path d="M24.8263 107.01C26.3643 106.948 29.4403 105.371 29.4459 105.371C29.4515 105.371 27.7681 103.659 27.6674 103.564C26.2916 102.446 22.9919 101.159 21.3532 102.244C21.0851 102.432 20.8597 102.675 20.6917 102.956C20.5237 103.237 20.4169 103.551 20.3784 103.876C20.3399 104.201 20.3704 104.531 20.468 104.843C20.5657 105.156 20.7282 105.444 20.945 105.69C21.8286 106.769 23.512 107.082 24.8263 107.01Z" fill="white"/>
</g>
<path d="M43.6235 149.246C43.6235 149.246 52.9633 126.735 58.1925 127.714C63.4218 128.693 49.2442 163.602 49.2442 163.602C49.2442 163.602 65.6756 132.608 76.8835 132.608C88.0913 132.608 72.7728 166.863 58.584 178.283C58.584 178.283 80.9886 154.14 94.0588 159.363C107.129 164.587 67.9183 189.049 67.9183 189.049C67.9183 189.049 90.6975 181.874 88.0857 187.422C85.4739 192.97 78.3767 193.943 78.3767 193.943L104.143 195.252H14.4965L34.6639 193.294C34.6639 193.294 13.747 182.853 19.351 178.613C24.9549 174.374 37.2757 183.507 37.2757 183.507C37.2757 183.507 15.9897 160.018 20.0948 151.203C24.1999 142.389 42.5049 167.193 42.5049 167.193C42.5049 167.193 27.5667 135.544 30.5532 130.012C33.5397 124.481 43.6235 149.246 43.6235 149.246Z" fill="#FF0000"/>
<path opacity="0.5" d="M43.6235 149.246C43.6235 149.246 52.9633 126.735 58.1925 127.714C63.4218 128.693 49.2442 163.602 49.2442 163.602C49.2442 163.602 65.6756 132.608 76.8835 132.608C88.0913 132.608 72.7728 166.863 58.584 178.283C58.584 178.283 80.9886 154.14 94.0588 159.363C107.129 164.587 67.9183 189.049 67.9183 189.049C67.9183 189.049 90.6975 181.874 88.0857 187.422C85.4739 192.97 78.3767 193.943 78.3767 193.943L104.143 195.252H14.4965L34.6639 193.294C34.6639 193.294 13.747 182.853 19.351 178.613C24.9549 174.374 37.2757 183.507 37.2757 183.507C37.2757 183.507 15.9897 160.018 20.0948 151.203C24.1999 142.389 42.5049 167.193 42.5049 167.193C42.5049 167.193 27.5667 135.544 30.5532 130.012C33.5397 124.481 43.6235 149.246 43.6235 149.246Z" fill="white"/>
<path d="M40.6369 150.432C48.8526 174.71 48.8526 191.891 48.8526 191.891C48.8526 191.891 39.1436 192.26 29.0599 184.793" stroke="#263238" stroke-linecap="round" stroke-linejoin="round"/>
<path d="M44.7476 163.507C46.4366 156.249 48.6802 149.131 51.4589 142.216" stroke="#263238" stroke-linecap="round" stroke-linejoin="round"/>
<path d="M69.0201 149.313L48.1088 180.314C48.1088 180.314 33.9144 168.362 29.0599 161.639" stroke="#263238" stroke-linecap="round" stroke-linejoin="round"/>
<path d="M48.4836 187.78C48.4836 187.78 70.5134 177.321 79.4786 171.348" stroke="#263238" stroke-linecap="round" stroke-linejoin="round"/>
<path d="M164.108 149.246C164.108 149.246 154.774 126.735 149.567 127.714C144.36 128.693 158.515 163.602 158.515 163.602C158.515 163.602 142.084 132.608 130.881 132.608C119.679 132.608 134.986 166.863 149.181 178.283C149.181 178.283 126.771 154.14 113.7 159.363C100.63 164.587 139.847 189.049 139.847 189.049C139.847 189.049 117.062 181.874 119.679 187.422C122.297 192.97 129.388 193.943 129.388 193.943L103.6 195.252H193.24L173.073 193.294C173.073 193.294 193.984 182.853 188.386 178.613C182.788 174.374 170.456 183.507 170.456 183.507C170.456 183.507 191.747 160.018 187.637 151.203C183.526 142.389 165.226 167.193 165.226 167.193C165.226 167.193 180.17 135.544 177.178 129.996C174.186 124.448 164.108 149.246 164.108 149.246Z" fill="#FF0000"/>
<path opacity="0.5" d="M164.108 149.246C164.108 149.246 154.774 126.735 149.567 127.714C144.36 128.693 158.515 163.602 158.515 163.602C158.515 163.602 142.084 132.608 130.881 132.608C119.679 132.608 134.986 166.863 149.181 178.283C149.181 178.283 126.771 154.14 113.7 159.363C100.63 164.587 139.847 189.049 139.847 189.049C139.847 189.049 117.062 181.874 119.679 187.422C122.297 192.97 129.388 193.943 129.388 193.943L103.6 195.252H193.24L173.073 193.294C173.073 193.294 193.984 182.853 188.386 178.613C182.788 174.374 170.456 183.507 170.456 183.507C170.456 183.507 191.747 160.018 187.637 151.203C183.526 142.389 165.226 167.193 165.226 167.193C165.226 167.193 180.17 135.544 177.178 129.996C174.186 124.448 164.108 149.246 164.108 149.246Z" fill="white"/>
<path d="M167.094 150.432C158.879 174.71 158.879 191.891 158.879 191.891C158.879 191.891 168.588 192.26 178.671 184.793" stroke="#263238" stroke-linecap="round" stroke-linejoin="round"/>
<path d="M162.989 163.507C161.3 156.249 159.057 149.131 156.278 142.216" stroke="#263238" stroke-linecap="round" stroke-linejoin="round"/>
<path d="M138.711 149.313L159.628 180.314C159.628 180.314 173.817 168.362 178.671 161.639" stroke="#263238" stroke-linecap="round" stroke-linejoin="round"/>
<path d="M159.253 187.78C159.253 187.78 137.218 177.321 128.253 171.348" stroke="#263238" stroke-linecap="round" stroke-linejoin="round"/>
<path d="M149.03 27.9449H62.6778C60.5929 27.9449 58.9027 29.6351 58.9027 31.72V193.401C58.9027 195.486 60.5929 197.176 62.6778 197.176H149.03C151.115 197.176 152.805 195.486 152.805 193.401V31.72C152.805 29.6351 151.115 27.9449 149.03 27.9449Z" fill="#263238" stroke="#263238" stroke-miterlimit="10"/>
<path d="M112.347 38.0565H100.658C100.5 38.0565 100.344 38.0254 100.198 37.965C100.052 37.9046 99.9195 37.816 99.8079 37.7043C99.6962 37.5927 99.6077 37.4601 99.5472 37.3142C99.4868 37.1684 99.4557 37.012 99.4557 36.8541C99.4557 36.6964 99.4868 36.5404 99.5473 36.3948C99.6078 36.2492 99.6965 36.117 99.8082 36.0058C99.9199 35.8946 100.053 35.8066 100.198 35.7467C100.344 35.6869 100.5 35.6565 100.658 35.6572H112.347C112.664 35.6572 112.969 35.7833 113.193 36.0078C113.418 36.2322 113.544 36.5367 113.544 36.8541C113.545 37.0117 113.514 37.168 113.454 37.3138C113.395 37.4597 113.306 37.5923 113.195 37.704C113.084 37.8157 112.952 37.9044 112.806 37.9649C112.661 38.0254 112.505 38.0565 112.347 38.0565Z" fill="#FF0000"/>
<path d="M146.871 182.053H64.8366V38.1964H84.2826L86.4693 40.0085C87.2316 40.6457 88.1939 40.9942 89.1874 40.9928H123.493C124.523 40.9871 125.516 40.6097 126.29 39.9302L128.264 38.1964H146.854L146.871 182.053Z" fill="white" stroke="#263238" stroke-width="0.938618" stroke-linecap="round" stroke-linejoin="round"/>
<path d="M97.5989 48.8002L96.4804 45.0419H68.5614V48.8002V174.413V178.177H143.398V48.8002H97.5989Z" fill="#FF0000"/>
<path d="M140.764 55.573H71.1901V174.038H140.764V55.573Z" fill="white"/>
<path d="M108.477 186.499C108.478 186.129 108.369 185.768 108.165 185.46C107.96 185.152 107.669 184.912 107.328 184.769C106.986 184.627 106.611 184.589 106.248 184.661C105.885 184.732 105.552 184.91 105.29 185.171C105.028 185.432 104.85 185.765 104.777 186.127C104.705 186.49 104.741 186.865 104.883 187.207C105.024 187.549 105.263 187.841 105.57 188.046C105.878 188.252 106.239 188.362 106.609 188.362C107.103 188.36 107.576 188.164 107.926 187.815C108.276 187.466 108.474 186.993 108.477 186.499Z" fill="#FF0000"/>
<path d="M100.753 168.865C113.405 168.865 123.661 154.272 123.661 136.271C123.661 118.269 113.405 103.676 100.753 103.676C88.1015 103.676 77.8453 118.269 77.8453 136.271C77.8453 154.272 88.1015 168.865 100.753 168.865Z" fill="#FF0000"/>
<path opacity="0.5" d="M100.753 168.865C113.405 168.865 123.661 154.272 123.661 136.271C123.661 118.269 113.405 103.676 100.753 103.676C88.1015 103.676 77.8453 118.269 77.8453 136.271C77.8453 154.272 88.1015 168.865 100.753 168.865Z" fill="white"/>
<path d="M104.003 99.8899C104.003 99.8899 102.571 97.4962 101.257 97.3787C99.9422 97.2613 84.2937 107.082 81.9 112.194C79.5063 117.306 77.2413 127.563 83.5779 137.434C89.7578 147.037 99.4445 146.718 104.467 146.237C109.489 145.756 112.856 144.123 117.945 140.04C123.035 135.957 127.705 129.945 128.381 125.863C129.058 121.78 126.569 119.509 124.981 118.944C123.393 118.379 114.204 118.491 107.509 111.674C100.815 104.856 104.003 99.8899 104.003 99.8899Z" fill="#263238" stroke="#263238" stroke-linecap="round" stroke-linejoin="round"/>
<path d="M106.033 96.7804C106.033 96.7804 101.972 98.3352 99.4613 101.081C96.9502 103.827 95.401 108.134 95.2836 114.465C95.1661 120.796 97.1963 127.96 105.076 131.069C112.957 134.179 120.009 131.785 122.28 129.632C124.55 127.479 127.313 121.394 127.313 121.394C127.313 121.394 114.774 124.75 108.801 117.686C102.828 110.622 106.033 96.7804 106.033 96.7804Z" fill="white" stroke="#263238" stroke-linecap="round" stroke-linejoin="round"/>
<path d="M176.211 101.193C173.146 96.5958 165.83 95.2368 160.047 93.3632C154.265 91.4896 150.859 87.7704 152.391 78.5648C153.923 69.3591 161.899 54.4042 161.748 51.6805C161.597 48.9568 134.187 49.1302 131.631 50.0027C129.075 50.8751 128.572 50.6794 126.189 53.7442C124.869 55.3994 123.674 57.151 122.615 58.9846L125.568 52.7767H125.786C126.107 51.9608 126.563 51.2045 127.134 50.5396C129.733 47.5249 131.205 43.7022 131.301 39.7232C131.413 33.8676 127.246 34.4325 126.457 36.2333C125.669 38.0342 121.055 44.231 119.701 45.92C118.348 47.609 115.535 52.2286 115.535 52.2286L112.409 63.0673C112.409 63.0673 111.726 66.2999 107.811 78.5536C103.896 90.8073 105.602 96.456 105.602 96.456C105.602 96.456 104.579 95.947 102.196 103.262C99.8137 110.578 100.837 119.934 105.088 124.358C109.338 128.782 114.959 128.614 121.256 126.064C125.13 124.404 128.356 121.525 130.445 117.865C130.445 117.865 137.084 116.187 142.016 112.423C146.949 108.659 150.691 104.767 157.85 105.108C165.008 105.449 173.162 109.532 175.886 109.358C178.61 109.185 179.275 105.785 176.211 101.193Z" fill="white"/>
<mask id="mask0_2_2084" style="mask-type:luminance" maskUnits="userSpaceOnUse" x="100" y="34" width="79" height="94">
<path d="M176.211 101.193C173.146 96.5958 165.83 95.2368 160.047 93.3632C154.265 91.4896 150.859 87.7704 152.391 78.5648C153.923 69.3591 161.899 54.4042 161.748 51.6805C161.597 48.9568 134.187 49.1302 131.631 50.0027C129.075 50.8751 128.572 50.6794 126.189 53.7442C124.869 55.3994 123.674 57.151 122.615 58.9846L125.568 52.7767H125.786C126.107 51.9608 126.563 51.2045 127.134 50.5396C129.733 47.5249 131.205 43.7022 131.301 39.7232C131.413 33.8676 127.246 34.4325 126.457 36.2333C125.669 38.0342 121.055 44.231 119.701 45.92C118.348 47.609 115.535 52.2286 115.535 52.2286L112.409 63.0673C112.409 63.0673 111.726 66.2999 107.811 78.5536C103.896 90.8073 105.602 96.456 105.602 96.456C105.602 96.456 104.579 95.947 102.196 103.262C99.8137 110.578 100.837 119.934 105.088 124.358C109.338 128.782 114.959 128.614 121.256 126.064C125.13 124.404 128.356 121.525 130.445 117.865C130.445 117.865 137.084 116.187 142.016 112.423C146.949 108.659 150.691 104.767 157.85 105.108C165.008 105.449 173.162 109.532 175.886 109.358C178.61 109.185 179.275 105.785 176.211 101.193Z" fill="white"/>
</mask>
<g mask="url(#mask0_2_2084)">
<path d="M132.324 85.2705C113.393 88.0948 107.442 92.6137 109.333 98.8329C109.725 100.066 110.362 101.207 111.206 102.189C111.206 102.306 111.206 102.435 111.24 102.569C111.24 102.569 111.575 102.77 112.079 103.128C112.741 103.768 113.458 104.35 114.221 104.867C115.462 106.048 116.575 107.524 116.346 108.894C115.859 111.814 109.075 116.914 105.647 117.16C102.219 117.406 101.027 114 100.541 117.647C100.054 121.293 107.593 130.286 114.886 129.313C122.179 128.34 128.258 118.128 128.258 118.128C128.258 118.128 127.285 116.45 132.173 111.321C135.384 107.966 139.975 106.484 143.493 105.108C146.814 104.131 150.052 102.889 153.174 101.394C161.826 97.1551 172.105 99.985 172.105 99.985C172.105 99.985 151.256 82.4126 132.324 85.2705Z" fill="#FF0000"/>
<path opacity="0.5" d="M132.324 85.2705C113.393 88.0948 107.442 92.6137 109.333 98.8329C109.725 100.066 110.362 101.207 111.206 102.189C111.206 102.306 111.206 102.435 111.24 102.569C111.24 102.569 111.575 102.77 112.079 103.128C112.741 103.768 113.458 104.35 114.221 104.867C115.462 106.048 116.575 107.524 116.346 108.894C115.859 111.814 109.075 116.914 105.647 117.16C102.219 117.406 101.027 114 100.541 117.647C100.054 121.293 107.593 130.286 114.886 129.313C122.179 128.34 128.258 118.128 128.258 118.128C128.258 118.128 127.285 116.45 132.173 111.321C135.384 107.966 139.975 106.484 143.493 105.108C146.814 104.131 150.052 102.889 153.174 101.394C161.826 97.1551 172.105 99.985 172.105 99.985C172.105 99.985 151.256 82.4126 132.324 85.2705Z" fill="white"/>
</g>
<path d="M176.211 101.193C173.146 96.5958 165.83 95.2368 160.047 93.3632C154.265 91.4896 150.859 87.7704 152.391 78.5648C153.923 69.3591 161.899 54.4042 161.748 51.6805C161.597 48.9568 134.187 49.1302 131.631 50.0027C129.075 50.8751 128.572 50.6794 126.189 53.7442C124.869 55.3994 123.674 57.151 122.615 58.9846L125.568 52.7767H125.786C126.107 51.9608 126.563 51.2045 127.134 50.5396C129.733 47.5249 131.205 43.7022 131.301 39.7232C131.413 33.8676 127.246 34.4325 126.457 36.2333C125.669 38.0342 121.055 44.231 119.701 45.92C118.348 47.609 115.535 52.2286 115.535 52.2286L112.409 63.0673C112.409 63.0673 111.726 66.2999 107.811 78.5536C103.896 90.8073 105.602 96.456 105.602 96.456C105.602 96.456 104.579 95.947 102.196 103.262C99.8137 110.578 100.837 119.934 105.088 124.358C109.338 128.782 114.959 128.614 121.256 126.064C125.13 124.404 128.356 121.525 130.445 117.865C130.445 117.865 137.084 116.187 142.016 112.423C146.949 108.659 150.691 104.767 157.85 105.108C165.008 105.449 173.162 109.532 175.886 109.358C178.61 109.185 179.275 105.785 176.211 101.193Z" stroke="#263238" stroke-linecap="round" stroke-linejoin="round"/>
<path d="M176.306 109.319C176.306 109.319 176.663 107.888 172.603 105.964C168.543 104.04 166.871 105.365 166.871 106.322C166.871 107.278 175.679 109.319 176.306 109.319Z" fill="white" stroke="#263238" stroke-linecap="round" stroke-linejoin="round"/>
<path d="M137.833 43.7892L127.587 51.6749H141.329C141.329 51.6749 141.329 41.9883 137.833 43.7892Z" fill="white" stroke="#263238" stroke-linecap="round" stroke-linejoin="round"/>
<path d="M124.981 100.667C126.436 99.0227 128.25 97.7349 130.283 96.9034" stroke="#263238" stroke-linecap="round" stroke-linejoin="round"/>
<path d="M123.119 103.727C123.276 103.272 123.48 102.835 123.728 102.423" stroke="#263238" stroke-linecap="round" stroke-linejoin="round"/>
<path d="M119.036 114.353C118.488 113.871 117.976 113.349 117.504 112.792" stroke="#263238" stroke-linecap="round" stroke-linejoin="round"/>
<path d="M130.445 117.865C127.285 118.224 124.093 117.57 121.329 115.997" stroke="#263238" stroke-linecap="round" stroke-linejoin="round"/>
<path d="M168.755 50.9982H117.123C109.992 50.9982 104.215 56.5182 104.215 63.3022V87.6306C104.215 93.5477 108.583 98.4917 114.411 99.683L111.687 107.742L124.293 99.9794H168.755C175.881 99.9794 181.663 94.4594 181.663 87.6754V63.3469C181.663 56.5182 175.881 50.9982 168.755 50.9982Z" fill="#FF0000" stroke="#263238" stroke-width="2" stroke-miterlimit="10"/>
<path d="M112.621 67.3793H170.662" stroke="#263238" stroke-width="2.06409" stroke-miterlimit="10" stroke-linecap="round"/>
<path d="M112.621 73.3579H170.662" stroke="#263238" stroke-width="2.06409" stroke-miterlimit="10" stroke-linecap="round"/>
<path d="M112.621 79.3311H170.662" stroke="#263238" stroke-width="2.06409" stroke-miterlimit="10" stroke-linecap="round"/>
<path d="M112.621 85.304H170.662" stroke="#263238" stroke-width="2.06409" stroke-miterlimit="10" stroke-linecap="round"/>
<path d="M181.194 72.3234C185.169 72.3234 188.391 69.246 188.391 65.4499C188.391 61.6538 185.169 58.5764 181.194 58.5764C177.218 58.5764 173.996 61.6538 173.996 65.4499C173.996 69.246 177.218 72.3234 181.194 72.3234Z" fill="#263238"/>
<path d="M180.634 70.3043C180.398 69.8318 180.292 69.3047 180.327 68.7775V63.1847L179.063 63.8894C178.927 63.9681 178.773 64.0105 178.615 64.0125C178.498 64.0137 178.381 63.9899 178.273 63.9426C178.165 63.8954 178.068 63.8258 177.989 63.7384C177.824 63.5674 177.734 63.3382 177.737 63.1008C177.734 62.9395 177.781 62.7811 177.872 62.6478C178.002 62.4917 178.157 62.3576 178.33 62.2507L180.78 60.998C181.053 60.8018 181.373 60.6803 181.708 60.6456C182.541 60.6456 182.955 61.272 182.955 62.5248V68.9732C182.955 70.198 182.519 70.8076 181.641 70.8076C181.443 70.8251 181.244 70.7873 181.066 70.6984C180.889 70.6096 180.739 70.4731 180.634 70.3043Z" fill="white"/>
<path d="M153.577 47.3964C153.577 47.3964 153.806 51.8986 157.861 54.0406C161.915 56.1826 167.094 55.7184 167.206 53.0283C167.318 50.3382 164.164 47.5083 162.027 43.9009C159.891 40.2936 155.154 42.3294 153.129 44.807" fill="white"/>
<path d="M153.577 47.3964C153.577 47.3964 153.806 51.8986 157.861 54.0406C161.915 56.1826 167.094 55.7184 167.206 53.0283C167.318 50.3382 164.164 47.5083 162.027 43.9009C159.891 40.2936 155.154 42.3294 153.129 44.807" stroke="#263238" stroke-linecap="round" stroke-linejoin="round"/>
<path d="M160.562 50.9981C160.221 52.799 161.462 53.7945 162.587 54.3538C163.711 54.9131 165.942 54.5831 167.206 53.0059C167.262 51.686 166.541 50.3438 165.528 48.8953C164.119 49.0742 160.825 49.5888 160.562 50.9981Z" fill="white" stroke="#263238" stroke-linecap="round" stroke-linejoin="round"/>
<path d="M145.132 47.3964C145.132 47.3964 145.355 51.8986 149.41 54.0406C153.465 56.1826 158.649 55.7184 158.761 53.0283C158.873 50.3382 155.719 47.5083 153.577 43.9009C151.435 40.2936 146.709 42.3294 144.679 44.807" fill="white"/>
<path d="M145.132 47.3964C145.132 47.3964 145.355 51.8986 149.41 54.0406C153.465 56.1826 158.649 55.7184 158.761 53.0283C158.873 50.3382 155.719 47.5083 153.577 43.9009C151.435 40.2936 146.709 42.3294 144.679 44.807" stroke="#263238" stroke-linecap="round" stroke-linejoin="round"/>
<path d="M152.117 50.9981C151.776 52.799 153.017 53.7945 154.142 54.3538C155.266 54.9131 157.497 54.5831 158.761 53.0059C158.811 51.686 158.09 50.3438 157.083 48.8953C155.674 49.0742 152.38 49.5888 152.117 50.9981Z" fill="white" stroke="#263238" stroke-linecap="round" stroke-linejoin="round"/>
<path d="M137.274 47.3964C137.274 47.3964 137.498 51.8986 141.552 54.0406C145.607 56.1826 150.786 55.7184 150.898 53.0283C151.01 50.3382 147.861 47.5083 145.719 43.9009C143.577 40.2936 138.845 42.3294 136.821 44.807" fill="white"/>
<path d="M137.274 47.3964C137.274 47.3964 137.498 51.8986 141.552 54.0406C145.607 56.1826 150.786 55.7184 150.898 53.0283C151.01 50.3382 147.861 47.5083 145.719 43.9009C143.577 40.2936 138.845 42.3294 136.821 44.807" stroke="#263238" stroke-linecap="round" stroke-linejoin="round"/>
<path d="M144.254 50.9981C143.918 52.799 145.154 53.7945 146.284 54.3538C147.413 54.9131 149.639 54.5831 150.898 53.0059C150.954 51.686 150.232 50.3438 149.22 48.8953C147.811 49.0742 144.516 49.5888 144.254 50.9981Z" fill="white" stroke="#263238" stroke-linecap="round" stroke-linejoin="round"/>
<path d="M105.602 96.4559C105.602 96.4559 105.915 103.38 109.735 108.038" stroke="#263238" stroke-linecap="round" stroke-linejoin="round"/>
<path d="M94.4837 125.354C94.4837 126.763 93.5442 127.904 92.3865 127.904C91.2288 127.904 90.2892 126.785 90.2892 125.354C90.2892 123.922 91.2288 122.803 92.3865 122.803C93.5442 122.803 94.4837 123.944 94.4837 125.354Z" fill="white"/>
<path d="M89.2657 128.53C89.2657 129.94 88.3261 131.081 87.1684 131.081C86.0107 131.081 85.0712 129.962 85.0712 128.53C85.0712 127.099 86.0107 125.974 87.1684 125.974C88.3261 125.974 89.2657 127.121 89.2657 128.53Z" stroke="#263238" stroke-linecap="round" stroke-linejoin="round"/>
</svg>
